<svg xmlns="http://www.w3.org/2000/svg" xmlns:xlink="http://www.w3.org/1999/xlink" width="7597" zoomAndPan="magnify" viewBox="0 0 5697.75 2295.749893" height="3061" preserveAspectRatio="xMidYMid meet" version="1.0"><defs><g/><clipPath id="1adca8f04d"><path d="M 1405.605469 935 L 2065 935 L 2065 1248 L 1405.605469 1248 Z M 1405.605469 935 " clip-rule="nonzero"/></clipPath><clipPath id="904fdd59fd"><path d="M 1700 229.550781 L 1775 229.550781 L 1775 305 L 1700 305 Z M 1700 229.550781 " clip-rule="nonzero"/></clipPath><clipPath id="e74b985906"><path d="M 3463 940 L 4121.8125 940 L 4121.8125 1253 L 3463 1253 Z M 3463 940 " clip-rule="nonzero"/></clipPath><clipPath id="3da86aa2c1"><path d="M 3752 229.550781 L 3828 229.550781 L 3828 305 L 3752 305 Z M 3752 229.550781 " clip-rule="nonzero"/></clipPath><clipPath id="b3de8381bc"><path d="M 1426.214844 950.867188 L 2044.824219 950.867188 L 2044.824219 1229.1875 L 1426.214844 1229.1875 Z M 1426.214844 950.867188 " clip-rule="nonzero"/></clipPath><clipPath id="74d51bf4ee"><path d="M 1928.277344 950.867188 C 1992.585938 950.867188 2044.714844 1013.171875 2044.714844 1090.027344 C 2044.714844 1166.882812 1992.585938 1229.1875 1928.277344 1229.1875 L 1542.652344 1229.1875 C 1478.34375 1229.1875 1426.214844 1166.882812 1426.214844 1090.027344 C 1426.214844 1013.171875 1478.34375 950.867188 1542.652344 950.867188 Z M 1928.277344 950.867188 " clip-rule="nonzero"/></clipPath><clipPath id="4804f067f7"><path d="M 0.214844 0.867188 L 618.761719 0.867188 L 618.761719 279.1875 L 0.214844 279.1875 Z M 0.214844 0.867188 " clip-rule="nonzero"/></clipPath><clipPath id="e7d37b4bab"><path d="M 502.277344 0.867188 C 566.585938 0.867188 618.714844 63.171875 618.714844 140.027344 C 618.714844 216.882812 566.585938 279.1875 502.277344 279.1875 L 116.652344 279.1875 C 52.34375 279.1875 0.214844 216.882812 0.214844 140.027344 C 0.214844 63.171875 52.34375 0.867188 116.652344 0.867188 Z M 502.277344 0.867188 " clip-rule="nonzero"/></clipPath><clipPath id="d12c4610a2"><rect x="0" width="619" y="0" height="280"/></clipPath><clipPath id="035733d2c9"><path d="M 2454.605469 958.285156 L 3073.214844 958.285156 L 3073.214844 1236.605469 L 2454.605469 1236.605469 Z M 2454.605469 958.285156 " clip-rule="nonzero"/></clipPath><clipPath id="df4debbdbc"><path d="M 2956.667969 958.285156 C 3020.976562 958.285156 3073.109375 1020.589844 3073.109375 1097.445312 C 3073.109375 1174.300781 3020.976562 1236.605469 2956.667969 1236.605469 L 2571.042969 1236.605469 C 2506.734375 1236.605469 2454.605469 1174.300781 2454.605469 1097.445312 C 2454.605469 1020.589844 2506.734375 958.285156 2571.042969 958.285156 Z M 2956.667969 958.285156 " clip-rule="nonzero"/></clipPath><clipPath id="508aafe6c1"><path d="M 0.605469 0.285156 L 619.214844 0.285156 L 619.214844 278.605469 L 0.605469 278.605469 Z M 0.605469 0.285156 " clip-rule="nonzero"/></clipPath><clipPath id="c4810a144b"><path d="M 502.667969 0.285156 C 566.976562 0.285156 619.109375 62.589844 619.109375 139.445312 C 619.109375 216.300781 566.976562 278.605469 502.667969 278.605469 L 117.042969 278.605469 C 52.734375 278.605469 0.605469 216.300781 0.605469 139.445312 C 0.605469 62.589844 52.734375 0.285156 117.042969 0.285156 Z M 502.667969 0.285156 " clip-rule="nonzero"/></clipPath><clipPath id="670dd2ff1c"><rect x="0" width="620" y="0" height="279"/></clipPath><clipPath id="de50cfc140"><path d="M 3483.3125 958.285156 L 4101.921875 958.285156 L 4101.921875 1236.605469 L 3483.3125 1236.605469 Z M 3483.3125 958.285156 " clip-rule="nonzero"/></clipPath><clipPath id="c65b88ed69"><path d="M 3985.375 958.285156 C 4049.683594 958.285156 4101.816406 1020.589844 4101.816406 1097.445312 C 4101.816406 1174.300781 4049.683594 1236.605469 3985.375 1236.605469 L 3599.753906 1236.605469 C 3535.445312 1236.605469 3483.3125 1174.300781 3483.3125 1097.445312 C 3483.3125 1020.589844 3535.445312 958.285156 3599.753906 958.285156 Z M 3985.375 958.285156 " clip-rule="nonzero"/></clipPath><clipPath id="dd37810bde"><path d="M 0.3125 0.285156 L 618.816406 0.285156 L 618.816406 278.605469 L 0.3125 278.605469 Z M 0.3125 0.285156 " clip-rule="nonzero"/></clipPath><clipPath id="734a5246a8"><path d="M 502.375 0.285156 C 566.683594 0.285156 618.816406 62.589844 618.816406 139.445312 C 618.816406 216.300781 566.683594 278.605469 502.375 278.605469 L 116.753906 278.605469 C 52.445312 278.605469 0.3125 216.300781 0.3125 139.445312 C 0.3125 62.589844 52.445312 0.285156 116.753906 0.285156 Z M 502.375 0.285156 " clip-rule="nonzero"/></clipPath><clipPath id="e8f0ff55ca"><rect x="0" width="619" y="0" height="279"/></clipPath></defs><path fill="#5fbcd3" d="M 1560.144531 1001.019531 L 1909.808594 1001.019531 C 1959.722656 1001.019531 1999.898438 1041.269531 1999.898438 1091.269531 C 1999.898438 1141.265625 1959.722656 1181.511719 1909.808594 1181.511719 L 1560.144531 1181.511719 C 1510.234375 1181.511719 1470.054688 1141.265625 1470.054688 1091.269531 C 1470.054688 1041.269531 1510.234375 1001.019531 1560.144531 1001.019531 Z M 1560.144531 1001.019531 " fill-opacity="1" fill-rule="nonzero"/><path fill="#f8f8f3" d="M 2046.894531 1080.1875 L 2046.894531 1102.335938 L 2454.679688 1102.335938 L 2454.679688 1080.1875 Z M 2046.894531 1080.1875 " fill-opacity="1" fill-rule="nonzero"/><path fill="#5f8dd3" d="M 2587.078125 1186.441406 L 2936.746094 1186.441406 C 2986.652344 1186.441406 3026.835938 1146.191406 3026.835938 1096.191406 C 3026.835938 1046.199219 2986.652344 1005.949219 2936.746094 1005.949219 L 2587.078125 1005.949219 C 2537.171875 1005.949219 2496.992188 1046.199219 2496.992188 1096.191406 C 2496.992188 1146.191406 2537.171875 1186.441406 2587.078125 1186.441406 Z M 2587.078125 1186.441406 " fill-opacity="1" fill-rule="nonzero"/><path fill="#f8f8f3" d="M 2748.382812 940.3125 L 2930.746094 940.3125 C 3019.484375 940.3125 3091.28125 1012.234375 3091.28125 1101.128906 C 3091.28125 1103.230469 3090.75 1105.183594 3090.664062 1107.261719 L 3068.535156 1107.261719 C 3068.632812 1105.183594 3069.148438 1103.230469 3069.148438 1101.128906 C 3069.148438 1024.128906 3007.613281 962.488281 2930.75 962.488281 L 2748.382812 962.488281 Z M 2748.382812 940.3125 " fill-opacity="1" fill-rule="nonzero"/><path fill="#f8f8f3" d="M 2775.445312 1252.078125 L 2593.078125 1252.078125 C 2504.34375 1252.078125 2432.542969 1180.15625 2432.542969 1091.261719 C 2432.542969 1089.160156 2433.078125 1087.207031 2433.15625 1085.128906 L 2455.292969 1085.128906 C 2455.203125 1087.207031 2454.679688 1089.160156 2454.679688 1091.261719 C 2454.679688 1168.261719 2516.210938 1229.902344 2593.078125 1229.902344 L 2775.445312 1229.902344 Z M 2775.445312 1252.078125 " fill-opacity="1" fill-rule="nonzero"/><path fill="#f8f8f3" d="M 2753.332031 1238.542969 L 2753.332031 1929.054688 L 2775.445312 1929.054688 L 2775.445312 1238.542969 Z M 2753.332031 1238.542969 " fill-opacity="1" fill-rule="nonzero"/><path fill="#f8f8f3" d="M 2801.785156 1920.140625 C 2801.785156 1915.222656 2800.820312 1910.351562 2798.9375 1905.804688 C 2797.058594 1901.257812 2794.304688 1897.125 2790.832031 1893.648438 C 2787.359375 1890.171875 2783.234375 1887.410156 2778.695312 1885.527344 C 2774.160156 1883.644531 2769.296875 1882.675781 2764.382812 1882.675781 C 2759.472656 1882.675781 2754.609375 1883.644531 2750.074219 1885.527344 C 2745.53125 1887.410156 2741.410156 1890.171875 2737.9375 1893.648438 C 2734.460938 1897.125 2731.707031 1901.257812 2729.828125 1905.804688 C 2727.949219 1910.351562 2726.984375 1915.222656 2726.984375 1920.140625 C 2726.984375 1925.066406 2727.949219 1929.9375 2729.828125 1934.480469 C 2731.707031 1939.027344 2734.460938 1943.15625 2737.9375 1946.636719 C 2741.410156 1950.117188 2745.53125 1952.875 2750.074219 1954.757812 C 2754.609375 1956.644531 2759.472656 1957.613281 2764.382812 1957.613281 C 2769.296875 1957.613281 2774.160156 1956.644531 2778.695312 1954.757812 C 2783.234375 1952.875 2787.359375 1950.117188 2790.832031 1946.636719 C 2794.304688 1943.15625 2797.058594 1939.027344 2798.9375 1934.480469 C 2800.820312 1929.9375 2801.785156 1925.066406 2801.785156 1920.140625 Z M 2801.785156 1920.140625 " fill-opacity="1" fill-rule="nonzero"/><path fill="#f8f8f3" d="M 3078.191406 1085.113281 L 3078.191406 1107.261719 L 3485.976562 1107.261719 L 3485.976562 1085.113281 Z M 3078.191406 1085.113281 " fill-opacity="1" fill-rule="nonzero"/><g clip-path="url(#1adca8f04d)"><path fill="#f8f8f3" d="M 1566.144531 935.382812 C 1482.800781 935.382812 1414.402344 998.835938 1406.398438 1080.199219 L 1406.222656 1080.199219 C 1406.144531 1082.277344 1405.605469 1084.230469 1405.605469 1086.332031 C 1405.605469 1087.984375 1405.644531 1089.628906 1405.691406 1091.265625 C 1405.640625 1092.90625 1405.605469 1094.550781 1405.605469 1096.203125 C 1405.605469 1098.304688 1406.144531 1100.253906 1406.222656 1102.335938 L 1406.398438 1102.335938 C 1414.402344 1183.699219 1482.800781 1247.148438 1566.144531 1247.148438 L 1903.8125 1247.148438 C 1992.546875 1247.148438 2064.34375 1175.226562 2064.34375 1086.332031 C 2064.34375 1084.230469 2063.8125 1082.277344 2063.734375 1080.199219 L 2041.597656 1080.199219 C 2041.695312 1082.277344 2042.214844 1084.230469 2042.214844 1086.332031 C 2042.214844 1163.332031 1980.679688 1224.976562 1903.8125 1224.976562 L 1566.144531 1224.976562 C 1490.925781 1224.976562 1430.402344 1165.949219 1427.835938 1091.265625 C 1430.402344 1016.585938 1490.925781 957.558594 1566.144531 957.558594 L 1748.507812 957.558594 L 1748.507812 935.382812 Z M 1566.144531 935.382812 " fill-opacity="1" fill-rule="nonzero"/></g><path fill="#f8f8f3" d="M 1726.394531 258.410156 L 1748.507812 258.410156 L 1748.507812 948.921875 L 1726.394531 948.921875 Z M 1726.394531 258.410156 " fill-opacity="1" fill-rule="nonzero"/><g clip-path="url(#904fdd59fd)"><path fill="#f8f8f3" d="M 1774.851562 267.320312 C 1774.851562 272.238281 1773.882812 277.113281 1772.003906 281.65625 C 1770.125 286.203125 1767.371094 290.332031 1763.898438 293.8125 C 1760.421875 297.292969 1756.300781 300.050781 1751.761719 301.933594 C 1747.222656 303.820312 1742.359375 304.789062 1737.449219 304.789062 C 1732.535156 304.789062 1727.671875 303.820312 1723.136719 301.933594 C 1718.597656 300.050781 1714.472656 297.292969 1711 293.8125 C 1707.527344 290.332031 1704.773438 286.203125 1702.894531 281.65625 C 1701.011719 277.113281 1700.046875 272.238281 1700.046875 267.320312 C 1700.046875 262.398438 1701.011719 257.527344 1702.894531 252.980469 C 1704.773438 248.433594 1707.527344 244.304688 1711 240.824219 C 1714.472656 237.347656 1718.597656 234.585938 1723.136719 232.703125 C 1727.671875 230.820312 1732.535156 229.851562 1737.449219 229.851562 C 1742.359375 229.851562 1747.222656 230.820312 1751.761719 232.703125 C 1756.300781 234.585938 1760.421875 237.347656 1763.898438 240.824219 C 1767.371094 244.304688 1770.125 248.433594 1772.003906 252.980469 C 1773.882812 257.527344 1774.851562 262.398438 1774.851562 267.320312 Z M 1774.851562 267.320312 " fill-opacity="1" fill-rule="nonzero"/></g><path fill="#23487f" d="M 3622.742188 1181.511719 L 3972.40625 1181.511719 C 4022.316406 1181.511719 4062.492188 1141.265625 4062.492188 1091.269531 C 4062.492188 1041.269531 4022.316406 1001.019531 3972.40625 1001.019531 L 3622.742188 1001.019531 C 3572.828125 1001.019531 3532.652344 1041.269531 3532.652344 1091.269531 C 3532.652344 1141.265625 3572.828125 1181.511719 3622.742188 1181.511719 Z M 3622.742188 1181.511719 " fill-opacity="1" fill-rule="nonzero"/><g clip-path="url(#e74b985906)"><path fill="#f8f8f3" d="M 3623.761719 1252.066406 C 3535.023438 1252.066406 3463.222656 1180.140625 3463.222656 1091.246094 C 3463.222656 1089.144531 3463.761719 1087.195312 3463.839844 1085.113281 L 3485.976562 1085.113281 C 3485.875 1087.195312 3485.359375 1089.144531 3485.359375 1091.246094 C 3485.359375 1168.25 3546.894531 1229.890625 3623.761719 1229.890625 L 3961.429688 1229.890625 C 4036.648438 1229.890625 4097.171875 1170.863281 4099.734375 1096.183594 C 4097.171875 1021.5 4036.648438 962.472656 3961.429688 962.472656 L 3779.066406 962.472656 L 3779.066406 940.300781 L 3961.429688 940.300781 C 4044.773438 940.300781 4113.167969 1003.75 4121.175781 1085.113281 L 4121.347656 1085.113281 C 4121.429688 1087.195312 4121.960938 1089.144531 4121.960938 1091.246094 C 4121.960938 1092.898438 4121.925781 1094.542969 4121.878906 1096.183594 C 4121.914062 1097.820312 4121.960938 1099.464844 4121.960938 1101.117188 C 4121.960938 1103.21875 4121.425781 1105.171875 4121.347656 1107.253906 L 4121.175781 1107.253906 C 4113.167969 1188.613281 4044.773438 1252.066406 3961.429688 1252.066406 Z M 3623.761719 1252.066406 " fill-opacity="1" fill-rule="nonzero"/></g><path fill="#f8f8f3" d="M 3779.066406 260.875 L 3801.179688 260.875 L 3801.179688 951.386719 L 3779.066406 951.386719 Z M 3779.066406 260.875 " fill-opacity="1" fill-rule="nonzero"/><g clip-path="url(#3da86aa2c1)"><path fill="#f8f8f3" d="M 3827.527344 267.320312 C 3827.527344 272.238281 3826.558594 277.113281 3824.679688 281.65625 C 3822.800781 286.203125 3820.042969 290.332031 3816.570312 293.8125 C 3813.097656 297.292969 3808.972656 300.050781 3804.4375 301.933594 C 3799.898438 303.820312 3795.035156 304.789062 3790.121094 304.789062 C 3785.210938 304.789062 3780.351562 303.820312 3775.808594 301.933594 C 3771.269531 300.050781 3767.148438 297.292969 3763.675781 293.8125 C 3760.203125 290.332031 3757.449219 286.203125 3755.566406 281.65625 C 3753.6875 277.113281 3752.71875 272.238281 3752.71875 267.320312 C 3752.71875 262.398438 3753.6875 257.527344 3755.566406 252.980469 C 3757.449219 248.433594 3760.203125 244.304688 3763.675781 240.824219 C 3767.148438 237.347656 3771.269531 234.585938 3775.808594 232.703125 C 3780.351562 230.820312 3785.210938 229.851562 3790.121094 229.851562 C 3795.035156 229.851562 3799.898438 230.820312 3804.4375 232.703125 C 3808.972656 234.585938 3813.097656 237.347656 3816.570312 240.824219 C 3820.042969 244.304688 3822.800781 248.433594 3824.679688 252.980469 C 3826.558594 257.527344 3827.527344 262.398438 3827.527344 267.320312 Z M 3827.527344 267.320312 " fill-opacity="1" fill-rule="nonzero"/></g><g clip-path="url(#b3de8381bc)"><g clip-path="url(#74d51bf4ee)"><g transform="matrix(1, 0, 0, 1, 1426, 950)"><g clip-path="url(#d12c4610a2)"><g clip-path="url(#4804f067f7)"><g clip-path="url(#e7d37b4bab)"><path fill="#8fbc8f" d="M 0.214844 0.867188 L 618.824219 0.867188 L 618.824219 279.1875 L 0.214844 279.1875 Z M 0.214844 0.867188 " fill-opacity="1" fill-rule="nonzero"/></g></g></g></g></g></g><g fill="#fffef4" fill-opacity="1"><g transform="translate(1508.504991, 1121.847495)"><g><path d="M 53.125 -32.390625 C 56.6875 -31.265625 59.472656 -29.378906 61.484375 -26.734375 C 63.503906 -24.097656 64.515625 -20.851562 64.515625 -17 C 64.515625 -11.539062 62.390625 -7.34375 58.140625 -4.40625 C 53.898438 -1.46875 47.71875 0 39.59375 0 L 7.390625 0 L 7.390625 -62.296875 L 37.8125 -62.296875 C 45.40625 -62.296875 51.234375 -60.835938 55.296875 -57.921875 C 59.367188 -55.015625 61.40625 -51.070312 61.40625 -46.09375 C 61.40625 -43.070312 60.675781 -40.375 59.21875 -38 C 57.757812 -35.625 55.726562 -33.753906 53.125 -32.390625 Z M 21.71875 -51.4375 L 21.71875 -36.75 L 36.03125 -36.75 C 39.59375 -36.75 42.289062 -37.367188 44.125 -38.609375 C 45.96875 -39.859375 46.890625 -41.703125 46.890625 -44.140625 C 46.890625 -46.566406 45.96875 -48.390625 44.125 -49.609375 C 42.289062 -50.828125 39.59375 -51.4375 36.03125 -51.4375 Z M 38.53125 -10.859375 C 42.320312 -10.859375 45.179688 -11.476562 47.109375 -12.71875 C 49.046875 -13.96875 50.015625 -15.898438 50.015625 -18.515625 C 50.015625 -23.671875 46.1875 -26.25 38.53125 -26.25 L 21.71875 -26.25 L 21.71875 -10.859375 Z M 38.53125 -10.859375 "/></g></g></g><g fill="#fffef4" fill-opacity="1"><g transform="translate(1576.57654, 1121.847495)"><g><path d="M 25.71875 -48.578125 C 33.132812 -48.578125 38.828125 -46.8125 42.796875 -43.28125 C 46.773438 -39.757812 48.765625 -34.4375 48.765625 -27.3125 L 48.765625 0 L 35.765625 0 L 35.765625 -5.96875 C 33.160156 -1.507812 28.296875 0.71875 21.171875 0.71875 C 17.492188 0.71875 14.304688 0.09375 11.609375 -1.15625 C 8.910156 -2.40625 6.847656 -4.125 5.421875 -6.3125 C 4.003906 -8.507812 3.296875 -11.003906 3.296875 -13.796875 C 3.296875 -18.242188 4.96875 -21.742188 8.3125 -24.296875 C 11.664062 -26.847656 16.84375 -28.125 23.84375 -28.125 L 34.875 -28.125 C 34.875 -31.144531 33.953125 -33.46875 32.109375 -35.09375 C 30.273438 -36.726562 27.519531 -37.546875 23.84375 -37.546875 C 21.289062 -37.546875 18.785156 -37.144531 16.328125 -36.34375 C 13.867188 -35.550781 11.78125 -34.472656 10.0625 -33.109375 L 5.078125 -42.796875 C 7.679688 -44.640625 10.804688 -46.0625 14.453125 -47.0625 C 18.109375 -48.070312 21.863281 -48.578125 25.71875 -48.578125 Z M 24.65625 -8.625 C 27.019531 -8.625 29.117188 -9.171875 30.953125 -10.265625 C 32.796875 -11.367188 34.101562 -12.988281 34.875 -15.125 L 34.875 -20.015625 L 25.359375 -20.015625 C 19.660156 -20.015625 16.8125 -18.148438 16.8125 -14.421875 C 16.8125 -12.640625 17.507812 -11.226562 18.90625 -10.1875 C 20.300781 -9.144531 22.21875 -8.625 24.65625 -8.625 Z M 24.65625 -8.625 "/></g></g></g><g fill="#fffef4" fill-opacity="1"><g transform="translate(1632.012603, 1121.847495)"><g><path d="M 29.546875 0.71875 C 24.441406 0.71875 19.859375 -0.332031 15.796875 -2.4375 C 11.734375 -4.550781 8.554688 -7.472656 6.265625 -11.203125 C 3.984375 -14.941406 2.84375 -19.1875 2.84375 -23.9375 C 2.84375 -28.6875 3.984375 -32.925781 6.265625 -36.65625 C 8.554688 -40.394531 11.734375 -43.316406 15.796875 -45.421875 C 19.859375 -47.523438 24.441406 -48.578125 29.546875 -48.578125 C 34.585938 -48.578125 38.988281 -47.523438 42.75 -45.421875 C 46.519531 -43.316406 49.265625 -40.304688 50.984375 -36.390625 L 40.21875 -30.609375 C 37.726562 -35.003906 34.140625 -37.203125 29.453125 -37.203125 C 25.835938 -37.203125 22.84375 -36.015625 20.46875 -33.640625 C 18.09375 -31.265625 16.90625 -28.03125 16.90625 -23.9375 C 16.90625 -19.84375 18.09375 -16.609375 20.46875 -14.234375 C 22.84375 -11.859375 25.835938 -10.671875 29.453125 -10.671875 C 34.203125 -10.671875 37.789062 -12.867188 40.21875 -17.265625 L 50.984375 -11.390625 C 49.265625 -7.585938 46.519531 -4.617188 42.75 -2.484375 C 38.988281 -0.347656 34.585938 0.71875 29.546875 0.71875 Z M 29.546875 0.71875 "/></g></g></g><g fill="#fffef4" fill-opacity="1"><g transform="translate(1684.245276, 1121.847495)"><g><path d="M 26.96875 -18.78125 L 20.28125 -12.1875 L 20.28125 0 L 6.40625 0 L 6.40625 -66.03125 L 20.28125 -66.03125 L 20.28125 -28.65625 L 40.578125 -47.875 L 57.125 -47.875 L 37.203125 -27.578125 L 58.90625 0 L 42.09375 0 Z M 26.96875 -18.78125 "/></g></g></g><g fill="#fffef4" fill-opacity="1"><g transform="translate(1742.973685, 1121.847495)"><g><path d="M 6.40625 -66.03125 L 20.28125 -66.03125 L 20.28125 0 L 6.40625 0 Z M 6.40625 -66.03125 "/></g></g></g><g fill="#fffef4" fill-opacity="1"><g transform="translate(1769.75738, 1121.847495)"><g><path d="M 6.40625 -47.875 L 20.28125 -47.875 L 20.28125 0 L 6.40625 0 Z M 13.34375 -54.546875 C 10.800781 -54.546875 8.726562 -55.285156 7.125 -56.765625 C 5.519531 -58.253906 4.71875 -60.097656 4.71875 -62.296875 C 4.71875 -64.484375 5.519531 -66.316406 7.125 -67.796875 C 8.726562 -69.285156 10.800781 -70.03125 13.34375 -70.03125 C 15.894531 -70.03125 17.972656 -69.316406 19.578125 -67.890625 C 21.179688 -66.472656 21.984375 -64.695312 21.984375 -62.5625 C 21.984375 -60.238281 21.179688 -58.320312 19.578125 -56.8125 C 17.972656 -55.300781 15.894531 -54.546875 13.34375 -54.546875 Z M 13.34375 -54.546875 "/></g></g></g><g fill="#fffef4" fill-opacity="1"><g transform="translate(1796.541075, 1121.847495)"><g><path d="M 35.5 -48.578125 C 41.4375 -48.578125 46.226562 -46.796875 49.875 -43.234375 C 53.519531 -39.679688 55.34375 -34.40625 55.34375 -27.40625 L 55.34375 0 L 41.46875 0 L 41.46875 -25.265625 C 41.46875 -29.066406 40.632812 -31.898438 38.96875 -33.765625 C 37.3125 -35.640625 34.910156 -36.578125 31.765625 -36.578125 C 28.265625 -36.578125 25.472656 -35.492188 23.390625 -33.328125 C 21.316406 -31.160156 20.28125 -27.941406 20.28125 -23.671875 L 20.28125 0 L 6.40625 0 L 6.40625 -47.875 L 19.671875 -47.875 L 19.671875 -42.265625 C 21.503906 -44.285156 23.785156 -45.84375 26.515625 -46.9375 C 29.242188 -48.03125 32.238281 -48.578125 35.5 -48.578125 Z M 35.5 -48.578125 "/></g></g></g><g fill="#fffef4" fill-opacity="1"><g transform="translate(1858.027942, 1121.847495)"><g><path d="M 26.96875 -18.78125 L 20.28125 -12.1875 L 20.28125 0 L 6.40625 0 L 6.40625 -66.03125 L 20.28125 -66.03125 L 20.28125 -28.65625 L 40.578125 -47.875 L 57.125 -47.875 L 37.203125 -27.578125 L 58.90625 0 L 42.09375 0 Z M 26.96875 -18.78125 "/></g></g></g><g fill="#fffef4" fill-opacity="1"><g transform="translate(1915.154583, 1121.847495)"><g><path d="M 22.515625 0.71875 C 18.535156 0.71875 14.644531 0.226562 10.84375 -0.75 C 7.050781 -1.726562 4.03125 -2.960938 1.78125 -4.453125 L 6.40625 -14.421875 C 8.539062 -13.054688 11.117188 -11.941406 14.140625 -11.078125 C 17.171875 -10.210938 20.140625 -9.78125 23.046875 -9.78125 C 28.921875 -9.78125 31.859375 -11.238281 31.859375 -14.15625 C 31.859375 -15.507812 31.054688 -16.484375 29.453125 -17.078125 C 27.847656 -17.671875 25.382812 -18.175781 22.0625 -18.59375 C 18.144531 -19.1875 14.910156 -19.867188 12.359375 -20.640625 C 9.816406 -21.410156 7.609375 -22.773438 5.734375 -24.734375 C 3.867188 -26.691406 2.9375 -29.484375 2.9375 -33.109375 C 2.9375 -36.128906 3.8125 -38.8125 5.5625 -41.15625 C 7.3125 -43.5 9.859375 -45.320312 13.203125 -46.625 C 16.554688 -47.925781 20.519531 -48.578125 25.09375 -48.578125 C 28.476562 -48.578125 31.84375 -48.207031 35.1875 -47.46875 C 38.539062 -46.726562 41.316406 -45.707031 43.515625 -44.40625 L 38.890625 -34.53125 C 34.671875 -36.894531 30.070312 -38.078125 25.09375 -38.078125 C 22.125 -38.078125 19.894531 -37.660156 18.40625 -36.828125 C 16.925781 -36.003906 16.1875 -34.941406 16.1875 -33.640625 C 16.1875 -32.148438 16.988281 -31.109375 18.59375 -30.515625 C 20.195312 -29.921875 22.75 -29.359375 26.25 -28.828125 C 30.164062 -28.179688 33.367188 -27.484375 35.859375 -26.734375 C 38.347656 -25.992188 40.507812 -24.644531 42.34375 -22.6875 C 44.1875 -20.726562 45.109375 -18 45.109375 -14.5 C 45.109375 -11.539062 44.21875 -8.898438 42.4375 -6.578125 C 40.664062 -4.265625 38.070312 -2.46875 34.65625 -1.1875 C 31.25 0.0820312 27.203125 0.71875 22.515625 0.71875 Z M 22.515625 0.71875 "/></g></g></g><g clip-path="url(#035733d2c9)"><g clip-path="url(#df4debbdbc)"><g transform="matrix(1, 0, 0, 1, 2454, 958)"><g clip-path="url(#670dd2ff1c)"><g clip-path="url(#508aafe6c1)"><g clip-path="url(#c4810a144b)"><path fill="#bab847" d="M 0.605469 0.285156 L 619.214844 0.285156 L 619.214844 278.605469 L 0.605469 278.605469 Z M 0.605469 0.285156 " fill-opacity="1" fill-rule="nonzero"/></g></g></g></g></g></g><g fill="#fffef4" fill-opacity="1"><g transform="translate(2581.65667, 1067.023838)"><g><path d="M 27.859375 1.0625 C 22.929688 1.0625 18.164062 0.394531 13.5625 -0.9375 C 8.96875 -2.269531 5.273438 -4.003906 2.484375 -6.140625 L 7.390625 -17 C 10.054688 -15.039062 13.226562 -13.46875 16.90625 -12.28125 C 20.582031 -11.09375 24.257812 -10.5 27.9375 -10.5 C 32.03125 -10.5 35.054688 -11.109375 37.015625 -12.328125 C 38.972656 -13.546875 39.953125 -15.160156 39.953125 -17.171875 C 39.953125 -18.660156 39.375 -19.890625 38.21875 -20.859375 C 37.0625 -21.835938 35.578125 -22.625 33.765625 -23.21875 C 31.960938 -23.8125 29.515625 -24.46875 26.421875 -25.1875 C 21.679688 -26.3125 17.796875 -27.4375 14.765625 -28.5625 C 11.742188 -29.6875 9.148438 -31.492188 6.984375 -33.984375 C 4.816406 -36.484375 3.734375 -39.804688 3.734375 -43.953125 C 3.734375 -47.578125 4.710938 -50.859375 6.671875 -53.796875 C 8.628906 -56.734375 11.578125 -59.0625 15.515625 -60.78125 C 19.460938 -62.5 24.285156 -63.359375 29.984375 -63.359375 C 33.960938 -63.359375 37.847656 -62.882812 41.640625 -61.9375 C 45.441406 -60.988281 48.765625 -59.625 51.609375 -57.84375 L 47.15625 -46.890625 C 41.40625 -50.148438 35.65625 -51.78125 29.90625 -51.78125 C 25.863281 -51.78125 22.878906 -51.128906 20.953125 -49.828125 C 19.023438 -48.523438 18.0625 -46.804688 18.0625 -44.671875 C 18.0625 -42.535156 19.171875 -40.945312 21.390625 -39.90625 C 23.617188 -38.875 27.019531 -37.851562 31.59375 -36.84375 C 36.332031 -35.71875 40.210938 -34.585938 43.234375 -33.453125 C 46.265625 -32.328125 48.863281 -30.546875 51.03125 -28.109375 C 53.195312 -25.679688 54.28125 -22.390625 54.28125 -18.234375 C 54.28125 -14.679688 53.285156 -11.4375 51.296875 -8.5 C 49.304688 -5.5625 46.320312 -3.234375 42.34375 -1.515625 C 38.375 0.203125 33.546875 1.0625 27.859375 1.0625 Z M 27.859375 1.0625 "/></g></g></g><g fill="#fffef4" fill-opacity="1"><g transform="translate(2638.427461, 1067.023838)"><g><path d="M 29.1875 0.71875 C 24.144531 0.71875 19.617188 -0.332031 15.609375 -2.4375 C 11.609375 -4.550781 8.476562 -7.472656 6.21875 -11.203125 C 3.96875 -14.941406 2.84375 -19.1875 2.84375 -23.9375 C 2.84375 -28.6875 3.96875 -32.925781 6.21875 -36.65625 C 8.476562 -40.394531 11.609375 -43.316406 15.609375 -45.421875 C 19.617188 -47.523438 24.144531 -48.578125 29.1875 -48.578125 C 34.226562 -48.578125 38.734375 -47.523438 42.703125 -45.421875 C 46.679688 -43.316406 49.796875 -40.394531 52.046875 -36.65625 C 54.304688 -32.925781 55.4375 -28.6875 55.4375 -23.9375 C 55.4375 -19.1875 54.304688 -14.941406 52.046875 -11.203125 C 49.796875 -7.472656 46.679688 -4.550781 42.703125 -2.4375 C 38.734375 -0.332031 34.226562 0.71875 29.1875 0.71875 Z M 29.1875 -10.671875 C 32.75 -10.671875 35.671875 -11.875 37.953125 -14.28125 C 40.234375 -16.6875 41.375 -19.90625 41.375 -23.9375 C 41.375 -27.96875 40.234375 -31.1875 37.953125 -33.59375 C 35.671875 -36 32.75 -37.203125 29.1875 -37.203125 C 25.625 -37.203125 22.6875 -36 20.375 -33.59375 C 18.0625 -31.1875 16.90625 -27.96875 16.90625 -23.9375 C 16.90625 -19.90625 18.0625 -16.6875 20.375 -14.28125 C 22.6875 -11.875 25.625 -10.671875 29.1875 -10.671875 Z M 29.1875 -10.671875 "/></g></g></g><g fill="#fffef4" fill-opacity="1"><g transform="translate(2696.71095, 1067.023838)"><g><path d="M 29.546875 0.71875 C 24.441406 0.71875 19.859375 -0.332031 15.796875 -2.4375 C 11.734375 -4.550781 8.554688 -7.472656 6.265625 -11.203125 C 3.984375 -14.941406 2.84375 -19.1875 2.84375 -23.9375 C 2.84375 -28.6875 3.984375 -32.925781 6.265625 -36.65625 C 8.554688 -40.394531 11.734375 -43.316406 15.796875 -45.421875 C 19.859375 -47.523438 24.441406 -48.578125 29.546875 -48.578125 C 34.585938 -48.578125 38.988281 -47.523438 42.75 -45.421875 C 46.519531 -43.316406 49.265625 -40.304688 50.984375 -36.390625 L 40.21875 -30.609375 C 37.726562 -35.003906 34.140625 -37.203125 29.453125 -37.203125 C 25.835938 -37.203125 22.84375 -36.015625 20.46875 -33.640625 C 18.09375 -31.265625 16.90625 -28.03125 16.90625 -23.9375 C 16.90625 -19.84375 18.09375 -16.609375 20.46875 -14.234375 C 22.84375 -11.859375 25.835938 -10.671875 29.453125 -10.671875 C 34.203125 -10.671875 37.789062 -12.867188 40.21875 -17.265625 L 50.984375 -11.390625 C 49.265625 -7.585938 46.519531 -4.617188 42.75 -2.484375 C 38.988281 -0.347656 34.585938 0.71875 29.546875 0.71875 Z M 29.546875 0.71875 "/></g></g></g><g fill="#fffef4" fill-opacity="1"><g transform="translate(2749.299563, 1067.023838)"><g><path d="M 6.40625 -47.875 L 20.28125 -47.875 L 20.28125 0 L 6.40625 0 Z M 13.34375 -54.546875 C 10.800781 -54.546875 8.726562 -55.285156 7.125 -56.765625 C 5.519531 -58.253906 4.71875 -60.097656 4.71875 -62.296875 C 4.71875 -64.484375 5.519531 -66.316406 7.125 -67.796875 C 8.726562 -69.285156 10.800781 -70.03125 13.34375 -70.03125 C 15.894531 -70.03125 17.972656 -69.316406 19.578125 -67.890625 C 21.179688 -66.472656 21.984375 -64.695312 21.984375 -62.5625 C 21.984375 -60.238281 21.179688 -58.320312 19.578125 -56.8125 C 17.972656 -55.300781 15.894531 -54.546875 13.34375 -54.546875 Z M 13.34375 -54.546875 "/></g></g></g><g fill="#fffef4" fill-opacity="1"><g transform="translate(2776.08328, 1067.023838)"><g><path d="M 25.71875 -48.578125 C 33.132812 -48.578125 38.828125 -46.8125 42.796875 -43.28125 C 46.773438 -39.757812 48.765625 -34.4375 48.765625 -27.3125 L 48.765625 0 L 35.765625 0 L 35.765625 -5.96875 C 33.160156 -1.507812 28.296875 0.71875 21.171875 0.71875 C 17.492188 0.71875 14.304688 0.09375 11.609375 -1.15625 C 8.910156 -2.40625 6.847656 -4.125 5.421875 -6.3125 C 4.003906 -8.507812 3.296875 -11.003906 3.296875 -13.796875 C 3.296875 -18.242188 4.96875 -21.742188 8.3125 -24.296875 C 11.664062 -26.847656 16.84375 -28.125 23.84375 -28.125 L 34.875 -28.125 C 34.875 -31.144531 33.953125 -33.46875 32.109375 -35.09375 C 30.273438 -36.726562 27.519531 -37.546875 23.84375 -37.546875 C 21.289062 -37.546875 18.785156 -37.144531 16.328125 -36.34375 C 13.867188 -35.550781 11.78125 -34.472656 10.0625 -33.109375 L 5.078125 -42.796875 C 7.679688 -44.640625 10.804688 -46.0625 14.453125 -47.0625 C 18.109375 -48.070312 21.863281 -48.578125 25.71875 -48.578125 Z M 24.65625 -8.625 C 27.019531 -8.625 29.117188 -9.171875 30.953125 -10.265625 C 32.796875 -11.367188 34.101562 -12.988281 34.875 -15.125 L 34.875 -20.015625 L 25.359375 -20.015625 C 19.660156 -20.015625 16.8125 -18.148438 16.8125 -14.421875 C 16.8125 -12.640625 17.507812 -11.226562 18.90625 -10.1875 C 20.300781 -9.144531 22.21875 -8.625 24.65625 -8.625 Z M 31.046875 -66.828125 L 46 -66.828125 L 29.890625 -54.015625 L 19.03125 -54.015625 Z M 31.046875 -66.828125 "/></g></g></g><g fill="#fffef4" fill-opacity="1"><g transform="translate(2830.985408, 1067.023838)"><g><path d="M 6.40625 -66.03125 L 20.28125 -66.03125 L 20.28125 0 L 6.40625 0 Z M 6.40625 -66.03125 "/></g></g></g><g fill="#fffef4" fill-opacity="1"><g transform="translate(2857.769125, 1067.023838)"><g><path d="M 35.5 -48.578125 C 41.4375 -48.578125 46.226562 -46.796875 49.875 -43.234375 C 53.519531 -39.679688 55.34375 -34.40625 55.34375 -27.40625 L 55.34375 0 L 41.46875 0 L 41.46875 -25.265625 C 41.46875 -29.066406 40.632812 -31.898438 38.96875 -33.765625 C 37.3125 -35.640625 34.910156 -36.578125 31.765625 -36.578125 C 28.265625 -36.578125 25.472656 -35.492188 23.390625 -33.328125 C 21.316406 -31.160156 20.28125 -27.941406 20.28125 -23.671875 L 20.28125 0 L 6.40625 0 L 6.40625 -47.875 L 19.671875 -47.875 L 19.671875 -42.265625 C 21.503906 -44.285156 23.785156 -45.84375 26.515625 -46.9375 C 29.242188 -48.03125 32.238281 -48.578125 35.5 -48.578125 Z M 35.5 -48.578125 "/></g></g></g><g fill="#fffef4" fill-opacity="1"><g transform="translate(2919.25597, 1067.023838)"><g><path d="M 6.40625 -47.875 L 20.28125 -47.875 L 20.28125 0 L 6.40625 0 Z M 17.265625 -66.828125 L 32.21875 -66.828125 L 16.109375 -54.015625 L 5.25 -54.015625 Z M 17.265625 -66.828125 "/></g></g></g><g fill="#fffef4" fill-opacity="1"><g transform="translate(2597.498694, 1191.510271)"><g><path d="M 22.515625 0.71875 C 18.535156 0.71875 14.644531 0.226562 10.84375 -0.75 C 7.050781 -1.726562 4.03125 -2.960938 1.78125 -4.453125 L 6.40625 -14.421875 C 8.539062 -13.054688 11.117188 -11.941406 14.140625 -11.078125 C 17.171875 -10.210938 20.140625 -9.78125 23.046875 -9.78125 C 28.921875 -9.78125 31.859375 -11.238281 31.859375 -14.15625 C 31.859375 -15.507812 31.054688 -16.484375 29.453125 -17.078125 C 27.847656 -17.671875 25.382812 -18.175781 22.0625 -18.59375 C 18.144531 -19.1875 14.910156 -19.867188 12.359375 -20.640625 C 9.816406 -21.410156 7.609375 -22.773438 5.734375 -24.734375 C 3.867188 -26.691406 2.9375 -29.484375 2.9375 -33.109375 C 2.9375 -36.128906 3.8125 -38.8125 5.5625 -41.15625 C 7.3125 -43.5 9.859375 -45.320312 13.203125 -46.625 C 16.554688 -47.925781 20.519531 -48.578125 25.09375 -48.578125 C 28.476562 -48.578125 31.84375 -48.207031 35.1875 -47.46875 C 38.539062 -46.726562 41.316406 -45.707031 43.515625 -44.40625 L 38.890625 -34.53125 C 34.671875 -36.894531 30.070312 -38.078125 25.09375 -38.078125 C 22.125 -38.078125 19.894531 -37.660156 18.40625 -36.828125 C 16.925781 -36.003906 16.1875 -34.941406 16.1875 -33.640625 C 16.1875 -32.148438 16.988281 -31.109375 18.59375 -30.515625 C 20.195312 -29.921875 22.75 -29.359375 26.25 -28.828125 C 30.164062 -28.179688 33.367188 -27.484375 35.859375 -26.734375 C 38.347656 -25.992188 40.507812 -24.644531 42.34375 -22.6875 C 44.1875 -20.726562 45.109375 -18 45.109375 -14.5 C 45.109375 -11.539062 44.21875 -8.898438 42.4375 -6.578125 C 40.664062 -4.265625 38.070312 -2.46875 34.65625 -1.1875 C 31.25 0.0820312 27.203125 0.71875 22.515625 0.71875 Z M 22.515625 0.71875 "/></g></g></g><g fill="#fffef4" fill-opacity="1"><g transform="translate(2644.748362, 1191.510271)"><g><path d="M 6.40625 -47.875 L 20.28125 -47.875 L 20.28125 0 L 6.40625 0 Z M 13.34375 -54.546875 C 10.800781 -54.546875 8.726562 -55.285156 7.125 -56.765625 C 5.519531 -58.253906 4.71875 -60.097656 4.71875 -62.296875 C 4.71875 -64.484375 5.519531 -66.316406 7.125 -67.796875 C 8.726562 -69.285156 10.800781 -70.03125 13.34375 -70.03125 C 15.894531 -70.03125 17.972656 -69.316406 19.578125 -67.890625 C 21.179688 -66.472656 21.984375 -64.695312 21.984375 -62.5625 C 21.984375 -60.238281 21.179688 -58.320312 19.578125 -56.8125 C 17.972656 -55.300781 15.894531 -54.546875 13.34375 -54.546875 Z M 13.34375 -54.546875 "/></g></g></g><g fill="#fffef4" fill-opacity="1"><g transform="translate(2671.532068, 1191.510271)"><g><path d="M 55.796875 -47.875 L 55.796875 -8.015625 C 55.796875 0.765625 53.507812 7.289062 48.9375 11.5625 C 44.375 15.832031 37.703125 17.96875 28.921875 17.96875 C 24.296875 17.96875 19.90625 17.40625 15.75 16.28125 C 11.59375 15.15625 8.148438 13.523438 5.421875 11.390625 L 10.9375 1.421875 C 12.957031 3.085938 15.507812 4.410156 18.59375 5.390625 C 21.675781 6.367188 24.765625 6.859375 27.859375 6.859375 C 32.660156 6.859375 36.203125 5.773438 38.484375 3.609375 C 40.765625 1.441406 41.90625 -1.835938 41.90625 -6.234375 L 41.90625 -8.28125 C 38.289062 -4.300781 33.25 -2.3125 26.78125 -2.3125 C 22.394531 -2.3125 18.375 -3.273438 14.71875 -5.203125 C 11.070312 -7.128906 8.179688 -9.84375 6.046875 -13.34375 C 3.910156 -16.84375 2.84375 -20.878906 2.84375 -25.453125 C 2.84375 -30.015625 3.910156 -34.046875 6.046875 -37.546875 C 8.179688 -41.046875 11.070312 -43.757812 14.71875 -45.6875 C 18.375 -47.613281 22.394531 -48.578125 26.78125 -48.578125 C 33.726562 -48.578125 39.007812 -46.296875 42.625 -41.734375 L 42.625 -47.875 Z M 29.546875 -13.703125 C 33.222656 -13.703125 36.234375 -14.785156 38.578125 -16.953125 C 40.921875 -19.117188 42.09375 -21.953125 42.09375 -25.453125 C 42.09375 -28.953125 40.921875 -31.785156 38.578125 -33.953125 C 36.234375 -36.117188 33.222656 -37.203125 29.546875 -37.203125 C 25.867188 -37.203125 22.84375 -36.117188 20.46875 -33.953125 C 18.09375 -31.785156 16.90625 -28.953125 16.90625 -25.453125 C 16.90625 -21.953125 18.09375 -19.117188 20.46875 -16.953125 C 22.84375 -14.785156 25.867188 -13.703125 29.546875 -13.703125 Z M 29.546875 -13.703125 "/></g></g></g><g fill="#fffef4" fill-opacity="1"><g transform="translate(2733.819763, 1191.510271)"><g><path d="M 35.5 -48.578125 C 41.4375 -48.578125 46.226562 -46.796875 49.875 -43.234375 C 53.519531 -39.679688 55.34375 -34.40625 55.34375 -27.40625 L 55.34375 0 L 41.46875 0 L 41.46875 -25.265625 C 41.46875 -29.066406 40.632812 -31.898438 38.96875 -33.765625 C 37.3125 -35.640625 34.910156 -36.578125 31.765625 -36.578125 C 28.265625 -36.578125 25.472656 -35.492188 23.390625 -33.328125 C 21.316406 -31.160156 20.28125 -27.941406 20.28125 -23.671875 L 20.28125 0 L 6.40625 0 L 6.40625 -47.875 L 19.671875 -47.875 L 19.671875 -42.265625 C 21.503906 -44.285156 23.785156 -45.84375 26.515625 -46.9375 C 29.242188 -48.03125 32.238281 -48.578125 35.5 -48.578125 Z M 35.5 -48.578125 "/></g></g></g><g fill="#fffef4" fill-opacity="1"><g transform="translate(2795.306618, 1191.510271)"><g><path d="M 25.71875 -48.578125 C 33.132812 -48.578125 38.828125 -46.8125 42.796875 -43.28125 C 46.773438 -39.757812 48.765625 -34.4375 48.765625 -27.3125 L 48.765625 0 L 35.765625 0 L 35.765625 -5.96875 C 33.160156 -1.507812 28.296875 0.71875 21.171875 0.71875 C 17.492188 0.71875 14.304688 0.09375 11.609375 -1.15625 C 8.910156 -2.40625 6.847656 -4.125 5.421875 -6.3125 C 4.003906 -8.507812 3.296875 -11.003906 3.296875 -13.796875 C 3.296875 -18.242188 4.96875 -21.742188 8.3125 -24.296875 C 11.664062 -26.847656 16.84375 -28.125 23.84375 -28.125 L 34.875 -28.125 C 34.875 -31.144531 33.953125 -33.46875 32.109375 -35.09375 C 30.273438 -36.726562 27.519531 -37.546875 23.84375 -37.546875 C 21.289062 -37.546875 18.785156 -37.144531 16.328125 -36.34375 C 13.867188 -35.550781 11.78125 -34.472656 10.0625 -33.109375 L 5.078125 -42.796875 C 7.679688 -44.640625 10.804688 -46.0625 14.453125 -47.0625 C 18.109375 -48.070312 21.863281 -48.578125 25.71875 -48.578125 Z M 24.65625 -8.625 C 27.019531 -8.625 29.117188 -9.171875 30.953125 -10.265625 C 32.796875 -11.367188 34.101562 -12.988281 34.875 -15.125 L 34.875 -20.015625 L 25.359375 -20.015625 C 19.660156 -20.015625 16.8125 -18.148438 16.8125 -14.421875 C 16.8125 -12.640625 17.507812 -11.226562 18.90625 -10.1875 C 20.300781 -9.144531 22.21875 -8.625 24.65625 -8.625 Z M 31.046875 -66.828125 L 46 -66.828125 L 29.890625 -54.015625 L 19.03125 -54.015625 Z M 31.046875 -66.828125 "/></g></g></g><g fill="#fffef4" fill-opacity="1"><g transform="translate(2850.208769, 1191.510271)"><g><path d="M 6.40625 -66.03125 L 20.28125 -66.03125 L 20.28125 0 L 6.40625 0 Z M 6.40625 -66.03125 "/></g></g></g><g fill="#fffef4" fill-opacity="1"><g transform="translate(2876.992464, 1191.510271)"><g><path d="M 53.921875 -47.875 L 32.296875 2.9375 C 30.109375 8.457031 27.394531 12.34375 24.15625 14.59375 C 20.925781 16.84375 17.023438 17.96875 12.453125 17.96875 C 9.960938 17.96875 7.5 17.582031 5.0625 16.8125 C 2.632812 16.039062 0.648438 14.972656 -0.890625 13.609375 L 4.1875 3.734375 C 5.25 4.679688 6.476562 5.421875 7.875 5.953125 C 9.269531 6.492188 10.648438 6.765625 12.015625 6.765625 C 13.910156 6.765625 15.453125 6.300781 16.640625 5.375 C 17.828125 4.457031 18.894531 2.929688 19.84375 0.796875 L 20.015625 0.359375 L -0.71875 -47.875 L 13.609375 -47.875 L 27.046875 -15.390625 L 40.578125 -47.875 Z M 53.921875 -47.875 "/></g></g></g><g clip-path="url(#de50cfc140)"><g clip-path="url(#c65b88ed69)"><g transform="matrix(1, 0, 0, 1, 3483, 958)"><g clip-path="url(#e8f0ff55ca)"><g clip-path="url(#dd37810bde)"><g clip-path="url(#734a5246a8)"><path fill="#f3b249" d="M 0.3125 0.285156 L 618.921875 0.285156 L 618.921875 278.605469 L 0.3125 278.605469 Z M 0.3125 0.285156 " fill-opacity="1" fill-rule="nonzero"/></g></g></g></g></g></g><g fill="#fffef4" fill-opacity="1"><g transform="translate(3601.425056, 1067.023838)"><g><path d="M 48.40625 -13.34375 L 19.484375 -13.34375 L 13.96875 0 L -0.796875 0 L 26.96875 -62.296875 L 41.203125 -62.296875 L 69.046875 0 L 53.921875 0 Z M 43.875 -24.296875 L 33.984375 -48.140625 L 24.109375 -24.296875 Z M 43.875 -24.296875 "/></g></g></g><g fill="#fffef4" fill-opacity="1"><g transform="translate(3668.695744, 1067.023838)"><g><path d="M 54.640625 -47.875 L 54.640625 0 L 41.46875 0 L 41.46875 -5.6875 C 39.625 -3.613281 37.425781 -2.023438 34.875 -0.921875 C 32.332031 0.171875 29.578125 0.71875 26.609375 0.71875 C 20.316406 0.71875 15.332031 -1.085938 11.65625 -4.703125 C 7.976562 -8.328125 6.140625 -13.703125 6.140625 -20.828125 L 6.140625 -47.875 L 20.015625 -47.875 L 20.015625 -22.875 C 20.015625 -15.15625 23.25 -11.296875 29.71875 -11.296875 C 33.039062 -11.296875 35.707031 -12.378906 37.71875 -14.546875 C 39.738281 -16.710938 40.75 -19.929688 40.75 -24.203125 L 40.75 -47.875 Z M 54.640625 -47.875 "/></g></g></g><g fill="#fffef4" fill-opacity="1"><g transform="translate(3729.82667, 1067.023838)"><g><path d="M 37.28125 -2.3125 C 35.914062 -1.300781 34.238281 -0.539062 32.25 -0.03125 C 30.269531 0.46875 28.179688 0.71875 25.984375 0.71875 C 20.285156 0.71875 15.878906 -0.734375 12.765625 -3.640625 C 9.648438 -6.554688 8.09375 -10.832031 8.09375 -16.46875 L 8.09375 -36.125 L 0.71875 -36.125 L 0.71875 -46.8125 L 8.09375 -46.8125 L 8.09375 -58.46875 L 21.984375 -58.46875 L 21.984375 -46.8125 L 33.90625 -46.8125 L 33.90625 -36.125 L 21.984375 -36.125 L 21.984375 -16.640625 C 21.984375 -14.617188 22.5 -13.0625 23.53125 -11.96875 C 24.570312 -10.875 26.039062 -10.328125 27.9375 -10.328125 C 30.132812 -10.328125 32.003906 -10.921875 33.546875 -12.109375 Z M 37.28125 -2.3125 "/></g></g></g><g fill="#fffef4" fill-opacity="1"><g transform="translate(3767.021271, 1067.023838)"><g><path d="M 29.1875 0.71875 C 24.144531 0.71875 19.617188 -0.332031 15.609375 -2.4375 C 11.609375 -4.550781 8.476562 -7.472656 6.21875 -11.203125 C 3.96875 -14.941406 2.84375 -19.1875 2.84375 -23.9375 C 2.84375 -28.6875 3.96875 -32.925781 6.21875 -36.65625 C 8.476562 -40.394531 11.609375 -43.316406 15.609375 -45.421875 C 19.617188 -47.523438 24.144531 -48.578125 29.1875 -48.578125 C 34.226562 -48.578125 38.734375 -47.523438 42.703125 -45.421875 C 46.679688 -43.316406 49.796875 -40.394531 52.046875 -36.65625 C 54.304688 -32.925781 55.4375 -28.6875 55.4375 -23.9375 C 55.4375 -19.1875 54.304688 -14.941406 52.046875 -11.203125 C 49.796875 -7.472656 46.679688 -4.550781 42.703125 -2.4375 C 38.734375 -0.332031 34.226562 0.71875 29.1875 0.71875 Z M 29.1875 -10.671875 C 32.75 -10.671875 35.671875 -11.875 37.953125 -14.28125 C 40.234375 -16.6875 41.375 -19.90625 41.375 -23.9375 C 41.375 -27.96875 40.234375 -31.1875 37.953125 -33.59375 C 35.671875 -36 32.75 -37.203125 29.1875 -37.203125 C 25.625 -37.203125 22.6875 -36 20.375 -33.59375 C 18.0625 -31.1875 16.90625 -27.96875 16.90625 -23.9375 C 16.90625 -19.90625 18.0625 -16.6875 20.375 -14.28125 C 22.6875 -11.875 25.625 -10.671875 29.1875 -10.671875 Z M 29.1875 -10.671875 "/></g></g></g><g fill="#fffef4" fill-opacity="1"><g transform="translate(3825.304771, 1067.023838)"><g><path d="M 19.671875 -41.5625 C 21.328125 -43.875 23.5625 -45.617188 26.375 -46.796875 C 29.195312 -47.984375 32.445312 -48.578125 36.125 -48.578125 L 36.125 -35.765625 C 34.582031 -35.890625 33.546875 -35.953125 33.015625 -35.953125 C 29.035156 -35.953125 25.914062 -34.835938 23.65625 -32.609375 C 21.40625 -30.390625 20.28125 -27.054688 20.28125 -22.609375 L 20.28125 0 L 6.40625 0 L 6.40625 -47.875 L 19.671875 -47.875 Z M 19.671875 -41.5625 "/></g></g></g><g fill="#fffef4" fill-opacity="1"><g transform="translate(3863.300234, 1067.023838)"><g><path d="M 6.40625 -47.875 L 20.28125 -47.875 L 20.28125 0 L 6.40625 0 Z M 13.34375 -54.546875 C 10.800781 -54.546875 8.726562 -55.285156 7.125 -56.765625 C 5.519531 -58.253906 4.71875 -60.097656 4.71875 -62.296875 C 4.71875 -64.484375 5.519531 -66.316406 7.125 -67.796875 C 8.726562 -69.285156 10.800781 -70.03125 13.34375 -70.03125 C 15.894531 -70.03125 17.972656 -69.316406 19.578125 -67.890625 C 21.179688 -66.472656 21.984375 -64.695312 21.984375 -62.5625 C 21.984375 -60.238281 21.179688 -58.320312 19.578125 -56.8125 C 17.972656 -55.300781 15.894531 -54.546875 13.34375 -54.546875 Z M 13.34375 -54.546875 "/></g></g></g><g fill="#fffef4" fill-opacity="1"><g transform="translate(3890.083951, 1067.023838)"><g><path d="M 37.28125 -2.3125 C 35.914062 -1.300781 34.238281 -0.539062 32.25 -0.03125 C 30.269531 0.46875 28.179688 0.71875 25.984375 0.71875 C 20.285156 0.71875 15.878906 -0.734375 12.765625 -3.640625 C 9.648438 -6.554688 8.09375 -10.832031 8.09375 -16.46875 L 8.09375 -36.125 L 0.71875 -36.125 L 0.71875 -46.8125 L 8.09375 -46.8125 L 8.09375 -58.46875 L 21.984375 -58.46875 L 21.984375 -46.8125 L 33.90625 -46.8125 L 33.90625 -36.125 L 21.984375 -36.125 L 21.984375 -16.640625 C 21.984375 -14.617188 22.5 -13.0625 23.53125 -11.96875 C 24.570312 -10.875 26.039062 -10.328125 27.9375 -10.328125 C 30.132812 -10.328125 32.003906 -10.921875 33.546875 -12.109375 Z M 37.28125 -2.3125 "/></g></g></g><g fill="#fffef4" fill-opacity="1"><g transform="translate(3928.791295, 1067.023838)"><g><path d="M 25.71875 -48.578125 C 33.132812 -48.578125 38.828125 -46.8125 42.796875 -43.28125 C 46.773438 -39.757812 48.765625 -34.4375 48.765625 -27.3125 L 48.765625 0 L 35.765625 0 L 35.765625 -5.96875 C 33.160156 -1.507812 28.296875 0.71875 21.171875 0.71875 C 17.492188 0.71875 14.304688 0.09375 11.609375 -1.15625 C 8.910156 -2.40625 6.847656 -4.125 5.421875 -6.3125 C 4.003906 -8.507812 3.296875 -11.003906 3.296875 -13.796875 C 3.296875 -18.242188 4.96875 -21.742188 8.3125 -24.296875 C 11.664062 -26.847656 16.84375 -28.125 23.84375 -28.125 L 34.875 -28.125 C 34.875 -31.144531 33.953125 -33.46875 32.109375 -35.09375 C 30.273438 -36.726562 27.519531 -37.546875 23.84375 -37.546875 C 21.289062 -37.546875 18.785156 -37.144531 16.328125 -36.34375 C 13.867188 -35.550781 11.78125 -34.472656 10.0625 -33.109375 L 5.078125 -42.796875 C 7.679688 -44.640625 10.804688 -46.0625 14.453125 -47.0625 C 18.109375 -48.070312 21.863281 -48.578125 25.71875 -48.578125 Z M 24.65625 -8.625 C 27.019531 -8.625 29.117188 -9.171875 30.953125 -10.265625 C 32.796875 -11.367188 34.101562 -12.988281 34.875 -15.125 L 34.875 -20.015625 L 25.359375 -20.015625 C 19.660156 -20.015625 16.8125 -18.148438 16.8125 -14.421875 C 16.8125 -12.640625 17.507812 -11.226562 18.90625 -10.1875 C 20.300781 -9.144531 22.21875 -8.625 24.65625 -8.625 Z M 24.65625 -8.625 "/></g></g></g><g fill="#fffef4" fill-opacity="1"><g transform="translate(3600.710291, 1191.510271)"><g><path d="M 55.171875 -66.03125 L 55.171875 0 L 41.90625 0 L 41.90625 -5.515625 C 38.46875 -1.359375 33.488281 0.71875 26.96875 0.71875 C 22.457031 0.71875 18.375 -0.289062 14.71875 -2.3125 C 11.070312 -4.332031 8.210938 -7.207031 6.140625 -10.9375 C 4.066406 -14.675781 3.03125 -19.007812 3.03125 -23.9375 C 3.03125 -28.863281 4.066406 -33.191406 6.140625 -36.921875 C 8.210938 -40.660156 11.070312 -43.535156 14.71875 -45.546875 C 18.375 -47.566406 22.457031 -48.578125 26.96875 -48.578125 C 33.070312 -48.578125 37.84375 -46.648438 41.28125 -42.796875 L 41.28125 -66.03125 Z M 29.359375 -10.671875 C 32.859375 -10.671875 35.765625 -11.875 38.078125 -14.28125 C 40.398438 -16.6875 41.5625 -19.90625 41.5625 -23.9375 C 41.5625 -27.96875 40.398438 -31.1875 38.078125 -33.59375 C 35.765625 -36 32.859375 -37.203125 29.359375 -37.203125 C 25.804688 -37.203125 22.867188 -36 20.546875 -33.59375 C 18.234375 -31.1875 17.078125 -27.96875 17.078125 -23.9375 C 17.078125 -19.90625 18.234375 -16.6875 20.546875 -14.28125 C 22.867188 -11.875 25.804688 -10.671875 29.359375 -10.671875 Z M 29.359375 -10.671875 "/></g></g></g><g fill="#fffef4" fill-opacity="1"><g transform="translate(3662.286126, 1191.510271)"><g><path d="M 29.1875 0.71875 C 24.144531 0.71875 19.617188 -0.332031 15.609375 -2.4375 C 11.609375 -4.550781 8.476562 -7.472656 6.21875 -11.203125 C 3.96875 -14.941406 2.84375 -19.1875 2.84375 -23.9375 C 2.84375 -28.6875 3.96875 -32.925781 6.21875 -36.65625 C 8.476562 -40.394531 11.609375 -43.316406 15.609375 -45.421875 C 19.617188 -47.523438 24.144531 -48.578125 29.1875 -48.578125 C 34.226562 -48.578125 38.734375 -47.523438 42.703125 -45.421875 C 46.679688 -43.316406 49.796875 -40.394531 52.046875 -36.65625 C 54.304688 -32.925781 55.4375 -28.6875 55.4375 -23.9375 C 55.4375 -19.1875 54.304688 -14.941406 52.046875 -11.203125 C 49.796875 -7.472656 46.679688 -4.550781 42.703125 -2.4375 C 38.734375 -0.332031 34.226562 0.71875 29.1875 0.71875 Z M 29.1875 -10.671875 C 32.75 -10.671875 35.671875 -11.875 37.953125 -14.28125 C 40.234375 -16.6875 41.375 -19.90625 41.375 -23.9375 C 41.375 -27.96875 40.234375 -31.1875 37.953125 -33.59375 C 35.671875 -36 32.75 -37.203125 29.1875 -37.203125 C 25.625 -37.203125 22.6875 -36 20.375 -33.59375 C 18.0625 -31.1875 16.90625 -27.96875 16.90625 -23.9375 C 16.90625 -19.90625 18.0625 -16.6875 20.375 -14.28125 C 22.6875 -11.875 25.625 -10.671875 29.1875 -10.671875 Z M 29.1875 -10.671875 "/></g></g></g><g fill="#fffef4" fill-opacity="1"><g transform="translate(3720.569615, 1191.510271)"><g><path d="M 67.71875 -48.578125 C 73.707031 -48.578125 78.46875 -46.8125 82 -43.28125 C 85.53125 -39.757812 87.296875 -34.46875 87.296875 -27.40625 L 87.296875 0 L 73.40625 0 L 73.40625 -25.265625 C 73.40625 -29.066406 72.617188 -31.898438 71.046875 -33.765625 C 69.484375 -35.640625 67.242188 -36.578125 64.328125 -36.578125 C 61.066406 -36.578125 58.488281 -35.519531 56.59375 -33.40625 C 54.695312 -31.300781 53.75 -28.175781 53.75 -24.03125 L 53.75 0 L 39.859375 0 L 39.859375 -25.265625 C 39.859375 -32.804688 36.832031 -36.578125 30.78125 -36.578125 C 27.582031 -36.578125 25.03125 -35.519531 23.125 -33.40625 C 21.226562 -31.300781 20.28125 -28.175781 20.28125 -24.03125 L 20.28125 0 L 6.40625 0 L 6.40625 -47.875 L 19.671875 -47.875 L 19.671875 -42.359375 C 21.441406 -44.367188 23.617188 -45.90625 26.203125 -46.96875 C 28.785156 -48.039062 31.617188 -48.578125 34.703125 -48.578125 C 38.085938 -48.578125 41.144531 -47.910156 43.875 -46.578125 C 46.601562 -45.242188 48.796875 -43.300781 50.453125 -40.75 C 52.410156 -43.25 54.882812 -45.175781 57.875 -46.53125 C 60.875 -47.894531 64.15625 -48.578125 67.71875 -48.578125 Z M 67.71875 -48.578125 "/></g></g></g><g fill="#fffef4" fill-opacity="1"><g transform="translate(3814.446083, 1191.510271)"><g><path d="M 53.296875 -23.765625 C 53.296875 -23.578125 53.207031 -22.328125 53.03125 -20.015625 L 16.8125 -20.015625 C 17.46875 -17.054688 19.007812 -14.710938 21.4375 -12.984375 C 23.875 -11.265625 26.898438 -10.40625 30.515625 -10.40625 C 33.015625 -10.40625 35.226562 -10.773438 37.15625 -11.515625 C 39.082031 -12.265625 40.875 -13.4375 42.53125 -15.03125 L 49.921875 -7.03125 C 45.410156 -1.863281 38.828125 0.71875 30.171875 0.71875 C 24.765625 0.71875 19.984375 -0.332031 15.828125 -2.4375 C 11.679688 -4.550781 8.476562 -7.472656 6.21875 -11.203125 C 3.96875 -14.941406 2.84375 -19.1875 2.84375 -23.9375 C 2.84375 -28.625 3.953125 -32.847656 6.171875 -36.609375 C 8.398438 -40.378906 11.457031 -43.316406 15.34375 -45.421875 C 19.226562 -47.523438 23.578125 -48.578125 28.390625 -48.578125 C 33.078125 -48.578125 37.316406 -47.566406 41.109375 -45.546875 C 44.910156 -43.535156 47.890625 -40.644531 50.046875 -36.875 C 52.210938 -33.113281 53.296875 -28.742188 53.296875 -23.765625 Z M 28.46875 -38.078125 C 25.332031 -38.078125 22.695312 -37.1875 20.5625 -35.40625 C 18.425781 -33.632812 17.117188 -31.207031 16.640625 -28.125 L 40.21875 -28.125 C 39.75 -31.144531 38.445312 -33.554688 36.3125 -35.359375 C 34.175781 -37.171875 31.5625 -38.078125 28.46875 -38.078125 Z M 32.03125 -66.828125 L 46.984375 -66.828125 L 30.875 -54.015625 L 20.015625 -54.015625 Z M 32.03125 -66.828125 "/></g></g></g><g fill="#fffef4" fill-opacity="1"><g transform="translate(3870.593994, 1191.510271)"><g><path d="M 35.5 -48.578125 C 41.4375 -48.578125 46.226562 -46.796875 49.875 -43.234375 C 53.519531 -39.679688 55.34375 -34.40625 55.34375 -27.40625 L 55.34375 0 L 41.46875 0 L 41.46875 -25.265625 C 41.46875 -29.066406 40.632812 -31.898438 38.96875 -33.765625 C 37.3125 -35.640625 34.910156 -36.578125 31.765625 -36.578125 C 28.265625 -36.578125 25.472656 -35.492188 23.390625 -33.328125 C 21.316406 -31.160156 20.28125 -27.941406 20.28125 -23.671875 L 20.28125 0 L 6.40625 0 L 6.40625 -47.875 L 19.671875 -47.875 L 19.671875 -42.265625 C 21.503906 -44.285156 23.785156 -45.84375 26.515625 -46.9375 C 29.242188 -48.03125 32.238281 -48.578125 35.5 -48.578125 Z M 35.5 -48.578125 "/></g></g></g><g fill="#fffef4" fill-opacity="1"><g transform="translate(3931.190998, 1191.510271)"><g><path d="M 53.921875 -47.875 L 32.296875 2.9375 C 30.109375 8.457031 27.394531 12.34375 24.15625 14.59375 C 20.925781 16.84375 17.023438 17.96875 12.453125 17.96875 C 9.960938 17.96875 7.5 17.582031 5.0625 16.8125 C 2.632812 16.039062 0.648438 14.972656 -0.890625 13.609375 L 4.1875 3.734375 C 5.25 4.679688 6.476562 5.421875 7.875 5.953125 C 9.269531 6.492188 10.648438 6.765625 12.015625 6.765625 C 13.910156 6.765625 15.453125 6.300781 16.640625 5.375 C 17.828125 4.457031 18.894531 2.929688 19.84375 0.796875 L 20.015625 0.359375 L -0.71875 -47.875 L 13.609375 -47.875 L 27.046875 -15.390625 L 40.578125 -47.875 Z M 53.921875 -47.875 "/></g></g></g></svg>